PathFileType	4	(X/Y/Z)	Walk4.trc
DataRate	CameraRate	NumFrames	NumMarkers	Units	OrigDataRate	OrigDataStartFrame	OrigNumFrames
200.000000	200.000000	4	61	mm	200.000000	582	718
Frame#	Times		RCAR		LToe		LLFC		RWRU		RACR1		RFA1		RFHD		LUA1		LFA1		LCAR		RWRR		LElbow		STRN		RLFC		LACR1		LWRU		RTH3		RTB2		LWRR		C7		LFHD		RToe		RMFC		RMT1		RTH2		RMT5		LTH3		LPSI		RPSI		RTB3		LTH4		LTB1		RASI		RCAL		RTB1		LTB3		LTB4		CLAV		LTH2		LTH1		LMT5		RTB4		LTB2		LMT1		RLMAL		RMMAL		LBHD		LMFC		RBHD		RUA1		RElbow		LLMAL		RBack		LASI		RTH1		RTH4		T10		LCAL		LElbowM		LMMAL		RElbowM
			X1	Y1	Z1	X2	Y2	Z2	X3	Y3	Z3	X4	Y4	Z4	X5	Y5	Z5	X6	Y6	Z6	X7	Y7	Z7	X8	Y8	Z8	X9	Y9	Z9	X10	Y10	Z10	X11	Y11	Z11	X12	Y12	Z12	X13	Y13	Z13	X14	Y14	Z14	X15	Y15	Z15	X16	Y16	Z16	X17	Y17	Z17	X18	Y18	Z18	X19	Y19	Z19	X20	Y20	Z20	X21	Y21	Z21	X22	Y22	Z22	X23	Y23	Z23	X24	Y24	Z24	X25	Y25	Z25	X26	Y26	Z26	X27	Y27	Z27	X28	Y28	Z28	X29	Y29	Z29	X30	Y30	Z30	X31	Y31	Z31	X32	Y32	Z32	X33	Y33	Z33	X34	Y34	Z34	X35	Y35	Z35	X36	Y36	Z36	X37	Y37	Z37	X38	Y38	Z38	X39	Y39	Z39	X40	Y40	Z40	X41	Y41	Z41	X42	Y42	Z42	X43	Y43	Z43	X44	Y44	Z44	X45	Y45	Z45	X46	Y46	Z46	X47	Y47	Z47	X48	Y48	Z48	X49	Y49	Z49	X50	Y50	Z50	X51	Y51	Z51	X52	Y52	Z52	X53	Y53	Z53	X54	Y54	Z54	X55	Y55	Z55	X56	Y56	Z56	X57	Y57	Z57	X58	Y58	Z58	X59	Y59	Z59	X60	Y60	Z60	X61	Y61	Z61

582	2.91	752.14	896.15	386.58	983.92	122.71	-68.819	654.44	514.99	-132.91	738.92	931.18	321.8	555.66	1498.9	240.26	660.07	1052.4	361.55	699.32	1672.6	115.75	464.99	1343.2	-207.81	468.41	1043.2	-285.16	485.09	876.04	-316.85	684.88	912.45	389.73	406.49	1180.5	-250.46	647.74	1287.7	38.12	387.21	506.05	215.44	500.68	1524.4	-126.48	420.19	918.74	-296.11	406.25	645.66	230.68	376.92	267.28	178.14	507.82	910.45	-263.25	427.3	1554.2	79.963	694.67	1674.3	10.291	483.33	33.465	92.231	378.3	506.28	66.261	432.31	51.067	78.843	473.79	723.91	241.56	390	29.707	178.59	619.67	650.27	-159.19	352.1	1063.1	-15.753	354.04	1063	92.819	350.83	191.52	106.93	587.29	730.58	-171.32	739.84	386.43	-37.247	570.5	1036.3	200.64	208.95	49.25	104.73	402.67	355.73	125.88	776.88	219.82	-40.836	756.28	303.09	-38.334	588.63	1460.6	38.367	640.09	755.44	-160.66	553.74	810.72	-180.26	897.15	83.565	-135.31	376.91	272.81	115.82	776.06	307.55	-98.893	932.33	104.96	-52.686	274.3	77.719	143.85	303.39	105.86	52.482	526.96	1687.7	-1.6999	673.37	510.31	9.0876	530.37	1689.4	140.55	560.73	1320.6	316.34	546.61	1157.7	365.36	788.33	116.78	-7.5752	382.76	1433.4	199.89	575.59	1027.2	-116.24	423.73	815.27	252.67	414	728.33	240.64	372.22	1197.4	45.077	720.72	40.934	-66.301	389.76	1151.9	-162.06	773.26	88.939	-107.43	513.72	1124.5	279.28
583	2.915	757.85	895.4	385.79	995.7	126.85	-68.626	659.11	513.76	-132.88	744.48	930.4	321.03	560.56	1498.1	239.63	665.66	1051.6	360.87	704.21	1671.9	115.2	470.31	1342.2	-208.32	473.56	1042.1	-285.32	489.86	874.63	-316.72	690.59	911.72	389.1	411.83	1179.5	-250.87	652.91	1286.9	37.67	389.84	505.91	215.21	505.84	1523.5	-127.12	425.03	917.77	-296.62	409.54	645.43	230.41	378.17	267.13	177.97	512.42	909.14	-263.09	432.3	1553.3	79.275	699.65	1673.6	9.7305	483.39	33.44	92.186	381.17	506.09	66.031	432.42	51.063	78.835	477.48	723.35	241.21	389.99	29.697	178.5	623.46	648.58	-159.38	357.48	1062.3	-16.443	359.28	1062.3	92.118	351.69	191.49	106.86	591.43	729.05	-171.49	746.6	386.42	-37.178	575.38	1035.5	200.33	209.06	49.885	104.67	404.52	355.38	125.78	786.8	220.5	-40.826	764.63	303.39	-38.296	593.72	1459.7	37.798	644.3	753.67	-160.68	558.2	809.29	-180.48	909.76	85.936	-135.15	378.26	272.6	115.71	784.23	308.19	-98.856	944.41	108.18	-52.608	274.51	78.109	143.78	303.74	106.13	52.452	531.93	1686.9	-2.3613	677.47	508.92	9.3324	535.23	1688.5	139.89	565.91	1319.7	315.72	552.16	1156.9	364.8	800.07	117.66	-7.5153	387.72	1432.4	199.22	581.09	1026.2	-116.58	427.84	814.94	252.4	417.7	728.15	240.52	377.53	1196.5	44.383	733.88	40.505	-66.207	394.97	1151	-162.46	785.6	89.474	-107.34	519.17	1123.7	278.78
584	2.92	763.52	894.62	385	1007.1	130.83	-68.491	663.82	512.51	-132.86	750.02	929.59	320.26	565.49	1497.2	238.98	671.24	1050.9	360.17	709.13	1671.1	114.63	475.63	1341.1	-208.86	478.76	1040.9	-285.5	494.7	873.22	-316.59	696.26	910.96	388.45	417.19	1178.4	-251.3	658.12	1286.1	37.198	392.53	505.79	214.97	511.03	1522.6	-127.79	429.94	916.78	-297.14	412.87	645.21	230.13	379.45	266.99	177.81	517.08	907.82	-262.9	437.33	1552.4	78.56	704.65	1672.9	9.1529	483.44	33.421	92.143	384.1	505.9	65.799	432.53	51.063	78.833	481.21	722.79	240.86	389.98	29.681	178.41	627.34	646.91	-159.63	362.89	1061.4	-17.154	364.56	1061.5	91.402	352.58	191.48	106.8	595.63	727.53	-171.74	753.3	386.42	-37.117	580.3	1034.7	200.05	209.18	50.571	104.6	406.4	355.04	125.68	796.49	221.18	-40.743	772.82	303.68	-38.224	598.83	1458.9	37.203	648.58	751.92	-160.78	562.71	807.88	-180.74	921.88	88.181	-134.92	379.64	272.41	115.62	792.2	308.76	-98.799	956.08	111.31	-52.521	274.73	78.533	143.71	304.11	106.42	52.422	536.93	1686	-3.0424	681.63	507.55	9.5402	540.12	1687.6	139.21	571.11	1318.9	315.07	557.71	1156.1	364.22	811.5	118.58	-7.3295	392.7	1431.5	198.52	586.63	1025.2	-116.91	431.97	814.62	252.13	421.43	727.97	240.42	382.87	1195.5	43.675	746.64	40.153	-65.845	400.2	1150	-162.89	797.51	90.01	-107.08	524.62	1122.8	278.25
585	2.925	769.15	893.81	384.22	1018	134.61	-68.404	668.57	511.24	-132.84	755.52	928.76	319.49	570.45	1496.4	238.31	676.79	1050.1	359.47	714.08	1670.4	114.04	480.96	1340.1	-209.43	483.99	1039.7	-285.69	499.62	871.81	-316.47	701.89	910.19	387.8	422.57	1177.3	-251.76	663.36	1285.2	36.707	395.27	505.66	214.74	516.24	1521.6	-128.49	434.92	915.77	-297.67	416.25	645	229.85	380.78	266.87	177.66	521.8	906.49	-262.7	442.38	1551.4	77.819	709.67	1672.2	8.5582	483.49	33.407	92.101	387.09	505.72	65.565	432.65	51.067	78.837	484.97	722.25	240.52	389.98	29.657	178.32	631.33	645.29	-159.94	368.33	1060.6	-17.883	369.87	1060.8	90.671	353.49	191.5	106.75	599.91	726.04	-172.08	759.94	386.39	-37.057	585.28	1033.9	199.8	209.3	51.31	104.55	408.32	354.7	125.58	805.91	221.84	-40.586	780.86	303.95	-38.114	603.98	1458.1	36.582	652.93	750.23	-160.96	567.27	806.49	-181.04	933.49	90.264	-134.63	381.05	272.23	115.53	799.97	309.25	-98.718	967.33	114.31	-52.418	274.97	78.993	143.65	304.5	106.75	52.394	541.95	1685.2	-3.7441	685.89	506.23	9.7168	545.03	1686.8	138.51	576.33	1318.1	314.38	563.25	1155.3	363.61	822.57	119.51	-7.0229	397.71	1430.6	197.8	592.19	1024.2	-117.23	436.13	814.31	251.85	425.2	727.81	240.34	388.24	1194.5	42.953	758.96	39.852	-65.232	405.47	1149	-163.33	808.96	90.517	-106.66	530.07	1121.9	277.69
